<mxfile host="app.diagrams.net" agent="Mozilla/5.0 (Windows NT 10.0; Win64; x64) AppleWebKit/537.36 (KHTML, like Gecko) Chrome/134.0.0.0 Safari/537.36 Edg/134.0.0.0" version="24.7.6">
  <diagram name="Page-1" id="js7U7kafk7IplGhe1T0i">
    <mxGraphModel dx="1647" dy="855" grid="1" gridSize="10" guides="1" tooltips="1" connect="1" arrows="1" fold="1" page="1" pageScale="1" pageWidth="1200" pageHeight="1920" math="0" shadow="0">
      <root>
        <mxCell id="0" />
        <mxCell id="1" parent="0" />
        <mxCell id="j2Y-IpniyFIQyYTk3NZa-1" value="" style="shape=cylinder3;whiteSpace=wrap;html=1;boundedLbl=1;backgroundOutline=1;size=15;" vertex="1" parent="1">
          <mxGeometry x="50" y="100" width="60" height="80" as="geometry" />
        </mxCell>
        <mxCell id="j2Y-IpniyFIQyYTk3NZa-2" value="" style="shape=image;html=1;verticalAlign=top;verticalLabelPosition=bottom;labelBackgroundColor=#ffffff;imageAspect=0;aspect=fixed;image=https://cdn3.iconfinder.com/data/icons/document-icons-2/30/647714-excel-128.png" vertex="1" parent="1">
          <mxGeometry x="36" y="250" width="88" height="88" as="geometry" />
        </mxCell>
        <mxCell id="j2Y-IpniyFIQyYTk3NZa-3" value="&lt;font style=&quot;font-size: 14px;&quot;&gt;Source Database&lt;/font&gt;" style="text;html=1;align=center;verticalAlign=middle;whiteSpace=wrap;rounded=0;" vertex="1" parent="1">
          <mxGeometry x="17.5" y="70" width="125" height="30" as="geometry" />
        </mxCell>
        <mxCell id="j2Y-IpniyFIQyYTk3NZa-4" value="&lt;font style=&quot;font-size: 14px;&quot;&gt;Spreadsheet&lt;/font&gt;" style="text;html=1;align=center;verticalAlign=middle;whiteSpace=wrap;rounded=0;" vertex="1" parent="1">
          <mxGeometry x="25" y="220" width="110" height="30" as="geometry" />
        </mxCell>
        <mxCell id="j2Y-IpniyFIQyYTk3NZa-5" value="" style="endArrow=classic;html=1;rounded=0;entryX=0;entryY=0.25;entryDx=0;entryDy=0;" edge="1" parent="1" source="j2Y-IpniyFIQyYTk3NZa-1" target="j2Y-IpniyFIQyYTk3NZa-7">
          <mxGeometry width="50" height="50" relative="1" as="geometry">
            <mxPoint x="400" y="460" as="sourcePoint" />
            <mxPoint x="270" y="220" as="targetPoint" />
          </mxGeometry>
        </mxCell>
        <mxCell id="j2Y-IpniyFIQyYTk3NZa-6" value="" style="endArrow=classic;html=1;rounded=0;" edge="1" parent="1" target="j2Y-IpniyFIQyYTk3NZa-7">
          <mxGeometry width="50" height="50" relative="1" as="geometry">
            <mxPoint x="124" y="290" as="sourcePoint" />
            <mxPoint x="270" y="230" as="targetPoint" />
          </mxGeometry>
        </mxCell>
        <mxCell id="j2Y-IpniyFIQyYTk3NZa-7" value="&lt;font style=&quot;font-size: 14px;&quot;&gt;Extract&lt;/font&gt;" style="rounded=1;whiteSpace=wrap;html=1;" vertex="1" parent="1">
          <mxGeometry x="280" y="190" width="120" height="60" as="geometry" />
        </mxCell>
        <mxCell id="j2Y-IpniyFIQyYTk3NZa-8" value="&lt;font style=&quot;font-size: 14px;&quot;&gt;Load&lt;/font&gt;" style="rounded=1;whiteSpace=wrap;html=1;" vertex="1" parent="1">
          <mxGeometry x="510" y="190" width="120" height="60" as="geometry" />
        </mxCell>
        <mxCell id="j2Y-IpniyFIQyYTk3NZa-9" value="" style="endArrow=classic;html=1;rounded=0;exitX=1;exitY=0.5;exitDx=0;exitDy=0;entryX=0;entryY=0.5;entryDx=0;entryDy=0;" edge="1" parent="1" source="j2Y-IpniyFIQyYTk3NZa-7" target="j2Y-IpniyFIQyYTk3NZa-8">
          <mxGeometry width="50" height="50" relative="1" as="geometry">
            <mxPoint x="400" y="470" as="sourcePoint" />
            <mxPoint x="450" y="420" as="targetPoint" />
          </mxGeometry>
        </mxCell>
        <mxCell id="j2Y-IpniyFIQyYTk3NZa-10" value="&lt;font style=&quot;font-size: 14px;&quot;&gt;Success?&lt;/font&gt;" style="rhombus;whiteSpace=wrap;html=1;" vertex="1" parent="1">
          <mxGeometry x="720" y="180" width="90" height="80" as="geometry" />
        </mxCell>
        <mxCell id="j2Y-IpniyFIQyYTk3NZa-15" value="" style="shape=cylinder3;whiteSpace=wrap;html=1;boundedLbl=1;backgroundOutline=1;size=15;" vertex="1" parent="1">
          <mxGeometry x="880" y="180" width="60" height="80" as="geometry" />
        </mxCell>
        <mxCell id="j2Y-IpniyFIQyYTk3NZa-16" value="" style="endArrow=classic;html=1;rounded=0;exitX=1;exitY=0.5;exitDx=0;exitDy=0;entryX=0;entryY=0.5;entryDx=0;entryDy=0;" edge="1" parent="1" target="j2Y-IpniyFIQyYTk3NZa-10">
          <mxGeometry width="50" height="50" relative="1" as="geometry">
            <mxPoint x="630" y="220" as="sourcePoint" />
            <mxPoint x="700" y="220" as="targetPoint" />
          </mxGeometry>
        </mxCell>
        <mxCell id="j2Y-IpniyFIQyYTk3NZa-17" value="" style="endArrow=classic;html=1;rounded=0;exitX=1;exitY=0.5;exitDx=0;exitDy=0;entryX=0;entryY=0.5;entryDx=0;entryDy=0;entryPerimeter=0;" edge="1" parent="1" source="j2Y-IpniyFIQyYTk3NZa-10" target="j2Y-IpniyFIQyYTk3NZa-15">
          <mxGeometry width="50" height="50" relative="1" as="geometry">
            <mxPoint x="400" y="470" as="sourcePoint" />
            <mxPoint x="450" y="420" as="targetPoint" />
          </mxGeometry>
        </mxCell>
        <mxCell id="j2Y-IpniyFIQyYTk3NZa-18" value="&lt;font style=&quot;font-size: 14px;&quot;&gt;Yes&lt;/font&gt;" style="text;html=1;align=center;verticalAlign=middle;resizable=0;points=[];autosize=1;strokeColor=none;fillColor=none;" vertex="1" parent="1">
          <mxGeometry x="815" y="190" width="50" height="30" as="geometry" />
        </mxCell>
        <mxCell id="j2Y-IpniyFIQyYTk3NZa-19" value="" style="outlineConnect=0;dashed=0;verticalLabelPosition=bottom;verticalAlign=top;align=center;html=1;shape=mxgraph.aws3.bucket_with_objects;fillColor=#E05243;gradientColor=none;" vertex="1" parent="1">
          <mxGeometry x="735" y="330" width="60" height="61.5" as="geometry" />
        </mxCell>
        <mxCell id="j2Y-IpniyFIQyYTk3NZa-20" value="" style="endArrow=classic;html=1;rounded=0;exitX=0.5;exitY=1;exitDx=0;exitDy=0;entryX=0.5;entryY=0;entryDx=0;entryDy=0;entryPerimeter=0;" edge="1" parent="1" source="j2Y-IpniyFIQyYTk3NZa-10" target="j2Y-IpniyFIQyYTk3NZa-19">
          <mxGeometry width="50" height="50" relative="1" as="geometry">
            <mxPoint x="400" y="470" as="sourcePoint" />
            <mxPoint x="450" y="420" as="targetPoint" />
          </mxGeometry>
        </mxCell>
        <mxCell id="j2Y-IpniyFIQyYTk3NZa-21" value="No" style="text;html=1;align=center;verticalAlign=middle;resizable=0;points=[];autosize=1;strokeColor=none;fillColor=none;" vertex="1" parent="1">
          <mxGeometry x="760" y="270" width="40" height="30" as="geometry" />
        </mxCell>
        <mxCell id="j2Y-IpniyFIQyYTk3NZa-23" value="&lt;font style=&quot;font-size: 14px;&quot;&gt;Object Storage&lt;/font&gt;" style="text;html=1;align=center;verticalAlign=middle;resizable=0;points=[];autosize=1;strokeColor=none;fillColor=none;" vertex="1" parent="1">
          <mxGeometry x="705" y="391.5" width="120" height="30" as="geometry" />
        </mxCell>
        <mxCell id="j2Y-IpniyFIQyYTk3NZa-25" value="&lt;font style=&quot;font-size: 14px;&quot;&gt;Staging DB&lt;/font&gt;" style="text;html=1;align=center;verticalAlign=middle;whiteSpace=wrap;rounded=0;" vertex="1" parent="1">
          <mxGeometry x="870" y="150" width="80" height="30" as="geometry" />
        </mxCell>
        <mxCell id="j2Y-IpniyFIQyYTk3NZa-26" value="" style="shape=cylinder3;whiteSpace=wrap;html=1;boundedLbl=1;backgroundOutline=1;size=15;" vertex="1" parent="1">
          <mxGeometry x="57.5" y="590" width="60" height="80" as="geometry" />
        </mxCell>
        <mxCell id="j2Y-IpniyFIQyYTk3NZa-30" value="&lt;font style=&quot;font-size: 14px;&quot;&gt;Staging Database&lt;/font&gt;" style="text;html=1;align=center;verticalAlign=middle;whiteSpace=wrap;rounded=0;" vertex="1" parent="1">
          <mxGeometry x="25" y="670" width="125" height="30" as="geometry" />
        </mxCell>
        <mxCell id="j2Y-IpniyFIQyYTk3NZa-31" value="&lt;font style=&quot;font-size: 14px;&quot;&gt;Extract&lt;/font&gt;" style="rounded=1;whiteSpace=wrap;html=1;" vertex="1" parent="1">
          <mxGeometry x="197.5" y="600" width="120" height="60" as="geometry" />
        </mxCell>
        <mxCell id="j2Y-IpniyFIQyYTk3NZa-32" value="" style="endArrow=classic;html=1;rounded=0;exitX=1;exitY=0.5;exitDx=0;exitDy=0;exitPerimeter=0;entryX=0;entryY=0.5;entryDx=0;entryDy=0;" edge="1" parent="1" source="j2Y-IpniyFIQyYTk3NZa-26" target="j2Y-IpniyFIQyYTk3NZa-31">
          <mxGeometry width="50" height="50" relative="1" as="geometry">
            <mxPoint x="407.5" y="590" as="sourcePoint" />
            <mxPoint x="457.5" y="540" as="targetPoint" />
          </mxGeometry>
        </mxCell>
        <mxCell id="j2Y-IpniyFIQyYTk3NZa-33" value="&lt;font style=&quot;font-size: 14px;&quot;&gt;Transform&lt;/font&gt;" style="rounded=1;whiteSpace=wrap;html=1;" vertex="1" parent="1">
          <mxGeometry x="387.5" y="600" width="120" height="60" as="geometry" />
        </mxCell>
        <mxCell id="j2Y-IpniyFIQyYTk3NZa-35" value="&lt;font style=&quot;font-size: 14px;&quot;&gt;Validation&lt;/font&gt;" style="rounded=1;whiteSpace=wrap;html=1;" vertex="1" parent="1">
          <mxGeometry x="577.5" y="600" width="120" height="60" as="geometry" />
        </mxCell>
        <mxCell id="j2Y-IpniyFIQyYTk3NZa-36" value="" style="endArrow=classic;html=1;rounded=0;exitX=1;exitY=0.5;exitDx=0;exitDy=0;" edge="1" parent="1">
          <mxGeometry width="50" height="50" relative="1" as="geometry">
            <mxPoint x="317.5" y="629.5" as="sourcePoint" />
            <mxPoint x="387.5" y="630" as="targetPoint" />
          </mxGeometry>
        </mxCell>
        <mxCell id="j2Y-IpniyFIQyYTk3NZa-37" value="" style="endArrow=classic;html=1;rounded=0;exitX=1;exitY=0.5;exitDx=0;exitDy=0;entryX=0;entryY=0.5;entryDx=0;entryDy=0;" edge="1" parent="1" target="j2Y-IpniyFIQyYTk3NZa-35">
          <mxGeometry width="50" height="50" relative="1" as="geometry">
            <mxPoint x="507.5" y="629.5" as="sourcePoint" />
            <mxPoint x="567.5" y="630" as="targetPoint" />
          </mxGeometry>
        </mxCell>
        <mxCell id="j2Y-IpniyFIQyYTk3NZa-39" value="&lt;font style=&quot;font-size: 14px;&quot;&gt;Data Valid?&lt;/font&gt;" style="rhombus;whiteSpace=wrap;html=1;" vertex="1" parent="1">
          <mxGeometry x="742.5" y="590" width="105" height="80" as="geometry" />
        </mxCell>
        <mxCell id="j2Y-IpniyFIQyYTk3NZa-40" value="" style="outlineConnect=0;dashed=0;verticalLabelPosition=bottom;verticalAlign=top;align=center;html=1;shape=mxgraph.aws3.bucket_with_objects;fillColor=#E05243;gradientColor=none;" vertex="1" parent="1">
          <mxGeometry x="765" y="730" width="60" height="61.5" as="geometry" />
        </mxCell>
        <mxCell id="j2Y-IpniyFIQyYTk3NZa-41" value="" style="endArrow=classic;html=1;rounded=0;exitX=0.5;exitY=1;exitDx=0;exitDy=0;entryX=0.5;entryY=0;entryDx=0;entryDy=0;entryPerimeter=0;" edge="1" parent="1" source="j2Y-IpniyFIQyYTk3NZa-39" target="j2Y-IpniyFIQyYTk3NZa-40">
          <mxGeometry width="50" height="50" relative="1" as="geometry">
            <mxPoint x="407.5" y="590" as="sourcePoint" />
            <mxPoint x="457.5" y="540" as="targetPoint" />
          </mxGeometry>
        </mxCell>
        <mxCell id="j2Y-IpniyFIQyYTk3NZa-42" value="" style="endArrow=classic;html=1;rounded=0;exitX=1;exitY=0.5;exitDx=0;exitDy=0;entryX=0;entryY=0.5;entryDx=0;entryDy=0;" edge="1" parent="1" source="j2Y-IpniyFIQyYTk3NZa-35" target="j2Y-IpniyFIQyYTk3NZa-39">
          <mxGeometry width="50" height="50" relative="1" as="geometry">
            <mxPoint x="407.5" y="590" as="sourcePoint" />
            <mxPoint x="457.5" y="540" as="targetPoint" />
          </mxGeometry>
        </mxCell>
        <mxCell id="j2Y-IpniyFIQyYTk3NZa-43" value="&lt;font style=&quot;font-size: 14px;&quot;&gt;Invalid Data&lt;/font&gt;" style="text;html=1;align=center;verticalAlign=middle;resizable=0;points=[];autosize=1;strokeColor=none;fillColor=none;" vertex="1" parent="1">
          <mxGeometry x="787.5" y="680" width="100" height="30" as="geometry" />
        </mxCell>
        <mxCell id="j2Y-IpniyFIQyYTk3NZa-44" value="&lt;font style=&quot;font-size: 14px;&quot;&gt;Object Storage&lt;/font&gt;" style="text;html=1;align=center;verticalAlign=middle;resizable=0;points=[];autosize=1;strokeColor=none;fillColor=none;" vertex="1" parent="1">
          <mxGeometry x="735" y="791.5" width="120" height="30" as="geometry" />
        </mxCell>
        <mxCell id="j2Y-IpniyFIQyYTk3NZa-45" value="" style="endArrow=classic;html=1;rounded=0;entryX=0;entryY=0.5;entryDx=0;entryDy=0;" edge="1" parent="1" target="j2Y-IpniyFIQyYTk3NZa-47">
          <mxGeometry width="50" height="50" relative="1" as="geometry">
            <mxPoint x="847.5" y="630" as="sourcePoint" />
            <mxPoint x="937.5" y="630" as="targetPoint" />
          </mxGeometry>
        </mxCell>
        <mxCell id="j2Y-IpniyFIQyYTk3NZa-46" value="&lt;font style=&quot;font-size: 14px;&quot;&gt;Valid Data&lt;/font&gt;" style="text;html=1;align=center;verticalAlign=middle;resizable=0;points=[];autosize=1;strokeColor=none;fillColor=none;" vertex="1" parent="1">
          <mxGeometry x="847.5" y="600" width="90" height="30" as="geometry" />
        </mxCell>
        <mxCell id="j2Y-IpniyFIQyYTk3NZa-47" value="&lt;font style=&quot;font-size: 14px;&quot;&gt;Load&lt;/font&gt;" style="rounded=1;whiteSpace=wrap;html=1;" vertex="1" parent="1">
          <mxGeometry x="947.5" y="600" width="120" height="60" as="geometry" />
        </mxCell>
        <mxCell id="j2Y-IpniyFIQyYTk3NZa-49" value="" style="shape=cylinder3;whiteSpace=wrap;html=1;boundedLbl=1;backgroundOutline=1;size=15;" vertex="1" parent="1">
          <mxGeometry x="977.5" y="710" width="60" height="80" as="geometry" />
        </mxCell>
        <mxCell id="j2Y-IpniyFIQyYTk3NZa-50" value="&lt;font style=&quot;font-size: 14px;&quot;&gt;Warehouse DB&lt;/font&gt;" style="text;html=1;align=center;verticalAlign=middle;resizable=0;points=[];autosize=1;strokeColor=none;fillColor=none;" vertex="1" parent="1">
          <mxGeometry x="947.5" y="790" width="120" height="30" as="geometry" />
        </mxCell>
        <mxCell id="j2Y-IpniyFIQyYTk3NZa-52" value="" style="endArrow=classic;html=1;rounded=0;entryX=0.5;entryY=0;entryDx=0;entryDy=0;entryPerimeter=0;" edge="1" parent="1" target="j2Y-IpniyFIQyYTk3NZa-49">
          <mxGeometry width="50" height="50" relative="1" as="geometry">
            <mxPoint x="1007.5" y="660" as="sourcePoint" />
            <mxPoint x="1057.5" y="610" as="targetPoint" />
          </mxGeometry>
        </mxCell>
        <mxCell id="j2Y-IpniyFIQyYTk3NZa-53" value="" style="shape=cylinder3;whiteSpace=wrap;html=1;boundedLbl=1;backgroundOutline=1;size=15;" vertex="1" parent="1">
          <mxGeometry x="420" y="70" width="60" height="80" as="geometry" />
        </mxCell>
        <mxCell id="j2Y-IpniyFIQyYTk3NZa-54" value="" style="endArrow=classic;html=1;rounded=0;entryX=0.295;entryY=0.949;entryDx=0;entryDy=0;entryPerimeter=0;" edge="1" parent="1" target="j2Y-IpniyFIQyYTk3NZa-53">
          <mxGeometry width="50" height="50" relative="1" as="geometry">
            <mxPoint x="340" y="190" as="sourcePoint" />
            <mxPoint x="390" y="140" as="targetPoint" />
          </mxGeometry>
        </mxCell>
        <mxCell id="j2Y-IpniyFIQyYTk3NZa-55" value="" style="endArrow=classic;html=1;rounded=0;entryX=0.855;entryY=1;entryDx=0;entryDy=-4.35;entryPerimeter=0;" edge="1" parent="1" target="j2Y-IpniyFIQyYTk3NZa-53">
          <mxGeometry width="50" height="50" relative="1" as="geometry">
            <mxPoint x="570" y="190" as="sourcePoint" />
            <mxPoint x="620" y="140" as="targetPoint" />
          </mxGeometry>
        </mxCell>
        <mxCell id="j2Y-IpniyFIQyYTk3NZa-56" value="&lt;font style=&quot;font-size: 14px;&quot;&gt;Log DB&lt;/font&gt;" style="text;html=1;align=center;verticalAlign=middle;resizable=0;points=[];autosize=1;strokeColor=none;fillColor=none;" vertex="1" parent="1">
          <mxGeometry x="415" y="40" width="70" height="30" as="geometry" />
        </mxCell>
        <mxCell id="j2Y-IpniyFIQyYTk3NZa-57" value="" style="shape=cylinder3;whiteSpace=wrap;html=1;boundedLbl=1;backgroundOutline=1;size=15;" vertex="1" parent="1">
          <mxGeometry x="600" y="470" width="60" height="80" as="geometry" />
        </mxCell>
        <mxCell id="j2Y-IpniyFIQyYTk3NZa-58" value="&lt;font style=&quot;font-size: 14px;&quot;&gt;Log DB&lt;/font&gt;" style="text;html=1;align=center;verticalAlign=middle;resizable=0;points=[];autosize=1;strokeColor=none;fillColor=none;" vertex="1" parent="1">
          <mxGeometry x="595" y="440" width="70" height="30" as="geometry" />
        </mxCell>
        <mxCell id="j2Y-IpniyFIQyYTk3NZa-61" value="" style="endArrow=classic;html=1;rounded=0;exitX=0.5;exitY=0;exitDx=0;exitDy=0;entryX=0;entryY=0;entryDx=0;entryDy=27.5;entryPerimeter=0;" edge="1" parent="1" source="j2Y-IpniyFIQyYTk3NZa-31" target="j2Y-IpniyFIQyYTk3NZa-57">
          <mxGeometry width="50" height="50" relative="1" as="geometry">
            <mxPoint x="260" y="560" as="sourcePoint" />
            <mxPoint x="600" y="523" as="targetPoint" />
            <Array as="points">
              <mxPoint x="258" y="498" />
            </Array>
          </mxGeometry>
        </mxCell>
        <mxCell id="j2Y-IpniyFIQyYTk3NZa-62" value="" style="endArrow=classic;html=1;rounded=0;exitX=0.437;exitY=-0.041;exitDx=0;exitDy=0;entryX=0;entryY=0;entryDx=0;entryDy=52.5;entryPerimeter=0;exitPerimeter=0;" edge="1" parent="1" source="j2Y-IpniyFIQyYTk3NZa-33" target="j2Y-IpniyFIQyYTk3NZa-57">
          <mxGeometry width="50" height="50" relative="1" as="geometry">
            <mxPoint x="440" y="570" as="sourcePoint" />
            <mxPoint x="490" y="520" as="targetPoint" />
            <Array as="points">
              <mxPoint x="440" y="523" />
            </Array>
          </mxGeometry>
        </mxCell>
        <mxCell id="j2Y-IpniyFIQyYTk3NZa-63" value="" style="endArrow=classic;html=1;rounded=0;exitX=0.5;exitY=0;exitDx=0;exitDy=0;entryX=0.628;entryY=1.025;entryDx=0;entryDy=0;entryPerimeter=0;" edge="1" parent="1" source="j2Y-IpniyFIQyYTk3NZa-35" target="j2Y-IpniyFIQyYTk3NZa-57">
          <mxGeometry width="50" height="50" relative="1" as="geometry">
            <mxPoint x="400" y="490" as="sourcePoint" />
            <mxPoint x="450" y="440" as="targetPoint" />
          </mxGeometry>
        </mxCell>
        <mxCell id="j2Y-IpniyFIQyYTk3NZa-64" value="" style="endArrow=classic;html=1;rounded=0;exitX=0.446;exitY=-0.003;exitDx=0;exitDy=0;exitPerimeter=0;entryX=1;entryY=0;entryDx=0;entryDy=52.5;entryPerimeter=0;" edge="1" parent="1" source="j2Y-IpniyFIQyYTk3NZa-47" target="j2Y-IpniyFIQyYTk3NZa-57">
          <mxGeometry width="50" height="50" relative="1" as="geometry">
            <mxPoint x="1010" y="580" as="sourcePoint" />
            <mxPoint x="670" y="520" as="targetPoint" />
            <Array as="points">
              <mxPoint x="1000" y="523" />
            </Array>
          </mxGeometry>
        </mxCell>
      </root>
    </mxGraphModel>
  </diagram>
</mxfile>
